<svg xmlns="http://www.w3.org/2000/svg"  viewBox="0 0 50 50" width="512px" height="512px" fill="white"><path d="M 23 -0.09375 C 21.300781 -0.09375 19.90625 1.300781 19.90625 3 L 19.90625 4 C 19.90625 4.597656 20.402344 5.09375 21 5.09375 L 29 5.09375 C 29.597656 5.09375 30.09375 4.597656 30.09375 4 L 30.09375 3 C 30.09375 1.300781 28.699219 -0.09375 27 -0.09375 Z M 20.84375 7.0625 L 20.03125 15.25 C 18.847656 16.324219 14.9375 20.175781 14.9375 24.15625 C 14.9375 25.566406 15.046875 26.8125 15.15625 28 L 21.3125 28 C 22.226563 26.535156 23.546875 26 25 26 C 26.453125 26 27.773438 26.535156 28.6875 28 L 34.84375 28 C 34.953125 26.8125 35.0625 25.566406 35.0625 24.15625 C 35.0625 20.179688 31.152344 16.324219 29.96875 15.25 L 29.15625 7.0625 C 29.105469 7.066406 29.054688 7.09375 29 7.09375 L 21 7.09375 C 20.945313 7.09375 20.894531 7.066406 20.84375 7.0625 Z M 15.34375 30 C 15.511719 31.5625 15.65625 33.070313 15.65625 34.75 C 15.65625 36.429688 15.589844 37.777344 15.5 39 L 20.5 39 C 20.1875 37.824219 20 36.355469 20 34.5 C 20 32.644531 20.1875 31.175781 20.5 30 Z M 29.5 30 C 29.8125 31.175781 30 32.644531 30 34.5 C 30 36.355469 29.8125 37.824219 29.5 39 L 34.5 39 C 34.410156 37.777344 34.34375 36.429688 34.34375 34.75 C 34.34375 33.066406 34.488281 31.5625 34.65625 30 Z M 15.34375 41 C 15.324219 41.1875 15.300781 41.378906 15.28125 41.5625 C 15.109375 43.3125 14.9375 44.957031 14.9375 47.15625 C 14.9375 48.78125 16.210938 50.0625 17.8125 50.0625 L 32.1875 50.0625 C 33.789063 50.0625 35.0625 48.78125 35.0625 47.15625 C 35.0625 44.960938 34.890625 43.3125 34.71875 41.5625 C 34.699219 41.378906 34.675781 41.1875 34.65625 41 L 28.6875 41 C 27.773438 42.464844 26.453125 43 25 43 C 23.546875 43 22.226563 42.464844 21.3125 41 Z"/></svg>