<svg xmlns="http://www.w3.org/2000/svg"  viewBox="0 0 64 64" width="512px" height="512px" fill="white"><path d="M 23 3 C 22.4 3 22 3.4 22 4 L 22 12.699219 C 22.9 13.099219 23.5 14 23.5 15 L 23.5 16.599609 C 24.6 16.799609 25.5 17.8 25.5 19 L 25.5 21.5 C 26.9 23.2 27.999609 24.700781 29.099609 26.300781 C 33.699609 33.300781 34.9 42.400391 32.5 51.400391 L 32.5 51.5 C 32.4 51.9 32.299219 52.199609 32.199219 52.599609 L 29.900391 60 C 29.800391 60.4 29.600391 60.7 29.400391 61 L 47.099609 61 C 45.399609 61 44 59.600391 44 57.900391 C 44.4 51.500391 44.999609 45.100781 46.099609 38.800781 C 47.599609 30.200781 51.1 22.2 54 14 L 54 4 C 54 3.4 53.6 3 53 3 L 23 3 z M 54 14 L 50.300781 32.599609 C 48.100781 40.799609 47 49.300391 47 57.900391 C 47 59.600391 48.399609 61 50.099609 61 L 57.900391 61 C 59.600391 61 61 59.600391 61 57.900391 C 61 49.300391 59.899219 40.799609 57.699219 32.599609 L 54 14 z M 30 12 L 42 12 C 43.1 12 44 12.9 44 14 C 44 15.1 43.1 16 42 16 L 30 16 C 28.9 16 28 15.1 28 14 C 28 12.9 28.9 12 30 12 z M 15 14 C 14.4 14 14 14.4 14 15 L 14 17 L 22 17 L 22 15 C 22 14.4 21.6 14 21 14 L 15 14 z M 13 18 C 12.4 18 12 18.4 12 19 L 12 22 C 10.4 24 8.5007813 25.899219 7.3007812 28.199219 C 6.1007812 30.599219 5.1 33.099219 4.5 35.699219 C 3.2 41.099219 3.5992187 46.7 5.1992188 52 L 7.0996094 58 L 7.5996094 59.599609 C 7.8996094 60.399609 8.6 61 9.5 61 L 26 61 L 26.5 61 C 27.4 61 28.200391 60.399609 28.400391 59.599609 L 28.900391 58 L 30.699219 52.099609 C 30.799219 51.699609 30.9 51.4 31 51 C 33.2 42.9 32.400781 34.199609 27.800781 27.099609 C 26.700781 25.399609 25.4 23.7 24 22 L 24 19 C 24 18.4 23.6 18 23 18 L 22 18 L 14 18 L 13 18 z M 13.226562 30.947266 C 13.449414 30.945312 13.675391 30.9625 13.900391 31 C 16.400391 31.4 17.999609 33.900391 17.099609 36.400391 C 15.799609 40.300391 15.700781 44.500391 16.800781 48.400391 L 17.300781 50 C 18.100781 52.9 15.700781 55.599219 12.800781 55.199219 C 11.200781 54.999219 9.9 53.800781 9.5 52.300781 L 8.3007812 48 C 6.9007813 43.4 7.2992188 38.600781 9.1992188 34.300781 L 9.5996094 33.400391 C 10.212109 31.912891 11.666602 30.960938 13.226562 30.947266 z M 24.710938 31.998047 C 26.755859 32.166138 28.625 34.943359 29 38.599609 C 29.3 42.499609 27.899219 45.8 25.699219 46 C 23.499219 46.2 21.4 43.300391 21 39.400391 C 20.6 35.600391 22.100781 32.3 24.300781 32 C 24.438281 31.9875 24.574609 31.986841 24.710938 31.998047 z"/></svg>