<svg xmlns="http://www.w3.org/2000/svg"  viewBox="0 0 100 100" width="512px" height="512px" fill="white"><path d="M 58 13 C 47.346241 13 37.976479 18.560209 32.65625 26.941406 A 1.0001 1.0001 0 0 0 32.560547 27.117188 C 20.543718 31.725725 12 43.369662 12 57 C 12 74.661428 26.338572 89 44 89 A 1.0001 1.0001 0 0 0 44.001953 89 C 57.626663 88.982483 69.261865 80.441735 73.875 68.429688 A 1.0001 1.0001 0 0 0 74.029297 68.34375 C 82.415272 63.024805 87.985528 53.658397 88 43.001953 A 1.0001 1.0001 0 0 0 88 43 C 88 26.44354 74.55646 13 58 13 z M 58 15 C 73.47554 15 86 27.52446 86 43 C 85.986995 52.109468 81.62908 60.180781 74.898438 65.292969 C 75.610156 62.647708 75.996313 59.869986 76 57.001953 A 1.0001 1.0001 0 0 0 76 57 C 76 49.862741 73.655475 43.270272 69.699219 37.945312 C 72.124126 37.602863 74 35.517308 74 33 C 74 30.244712 71.755288 28 69 28 C 66.551116 28 64.508654 29.774621 64.083984 32.103516 C 61.435941 29.963957 58.443947 28.235612 55.199219 27.021484 C 55.691381 26.486634 56 25.780388 56 25 C 56 23.348906 54.651094 22 53 22 C 51.348906 22 50 23.348906 50 25 C 50 25.199047 50.021219 25.393602 50.058594 25.582031 C 48.095725 25.205072 46.07214 25 44 25 C 41.125344 25 38.340549 25.385432 35.689453 26.097656 C 40.801686 19.358866 48.882476 15 58 15 z M 53 23 C 54.110906 23 55 23.889094 55 25 C 55 25.688784 54.657344 26.291194 54.132812 26.650391 C 53.166577 26.327506 52.180472 26.049016 51.175781 25.818359 C 51.06447 25.568594 51 25.292801 51 25 C 51 23.889094 51.889094 23 53 23 z M 44 27 C 60.57991 27 73.998928 40.41839 74 56.998047 C 73.978694 73.569875 60.571575 86.977625 44 87 C 27.419428 87 14 73.580572 14 57 C 14 40.419428 27.419428 27 44 27 z M 69 29 C 71.214712 29 73 30.785288 73 33 C 73 35.214712 71.214712 37 69 37 A 0.50005 0.50005 0 0 0 68.964844 37.001953 C 67.771287 35.514382 66.448102 34.135563 65.011719 32.882812 C 65.0748 30.723941 66.825413 29 69 29 z M 40 40 C 38.348906 40 37 41.348906 37 43 C 37 44.651094 38.348906 46 40 46 C 41.651094 46 43 44.651094 43 43 C 43 41.348906 41.651094 40 40 40 z M 40 41 C 41.110906 41 42 41.889094 42 43 C 42 44.110906 41.110906 45 40 45 C 38.889094 45 38 44.110906 38 43 C 38 41.889094 38.889094 41 40 41 z M 55 42 C 53.901469 42 53 42.901469 53 44 C 53 45.098531 53.901469 46 55 46 C 56.098531 46 57 45.098531 57 44 C 57 42.901469 56.098531 42 55 42 z M 55 43 C 55.557469 43 56 43.442531 56 44 C 56 44.557469 55.557469 45 55 45 C 54.442531 45 54 44.557469 54 44 C 54 43.442531 54.442531 43 55 43 z M 29 48 C 26.244712 48 24 50.244712 24 53 C 24 55.755288 26.244712 58 29 58 C 31.755288 58 34 55.755288 34 53 C 34 50.244712 31.755288 48 29 48 z M 29 49 C 31.214712 49 33 50.785288 33 53 C 33 55.214712 31.214712 57 29 57 C 26.785288 57 25 55.214712 25 53 C 25 50.785288 26.785288 49 29 49 z M 44 55 C 42.348906 55 41 56.348906 41 58 C 41 59.651094 42.348906 61 44 61 C 45.651094 61 47 59.651094 47 58 C 47 56.348906 45.651094 55 44 55 z M 44 56 C 45.110906 56 46 56.889094 46 58 C 46 59.110906 45.110906 60 44 60 C 42.889094 60 42 59.110906 42 58 C 42 56.889094 42.889094 56 44 56 z M 33 65 C 30.796781 65 29 66.796781 29 69 C 29 71.203219 30.796781 73 33 73 C 35.203219 73 37 71.203219 37 69 C 37 66.796781 35.203219 65 33 65 z M 54 65 C 51.244712 65 49 67.244712 49 70 C 49 72.755288 51.244712 75 54 75 C 56.755288 75 59 72.755288 59 70 C 59 67.244712 56.755288 65 54 65 z M 33 66 C 34.662781 66 36 67.337219 36 69 C 36 70.662781 34.662781 72 33 72 C 31.337219 72 30 70.662781 30 69 C 30 67.337219 31.337219 66 33 66 z M 54 66 C 56.214712 66 58 67.785288 58 70 C 58 72.214712 56.214712 74 54 74 C 51.785288 74 50 72.214712 50 70 C 50 67.785288 51.785288 66 54 66 z"/></svg>