<svg xmlns="http://www.w3.org/2000/svg"  viewBox="0 0 133 133" width="512px" height="512px" fill="white"><path d="M 107.61133 19.755859 C 94.708008 19.755859 84.210938 30.247559 84.210938 43.144531 C 84.210938 45.623352 84.614929 48.039368 85.369141 50.355469 C 85.293091 50.324951 85.216553 50.286987 85.140625 50.257812 L 85.048828 50.220703 C 82.674194 41.427368 74.703979 35.304687 65.560547 35.304688 C 58.929687 35.304688 52.727539 38.563965 48.972656 44.017578 C 48.72876 44.363525 48.498291 44.725708 48.273438 45.097656 C 46.977539 34.000488 37.579834 25.365234 26.060547 25.365234 C 13.720703 25.365234 3.6816406 35.405762 3.6816406 47.746094 L 3.6816406 85.785156 C 3.6816406 87.610352 5.1650391 89.095703 6.9902344 89.095703 L 21.066406 89.095703 L 21.066406 108.24023 C 21.066406 109.8844 21.874695 111.33301 23.103516 112.24414 L 16.117188 112.24414 C 15.84082 112.24414 15.617188 112.46777 15.617188 112.74414 C 15.617188 113.02051 15.84082 113.24414 16.117188 113.24414 L 117.55469 113.24414 C 117.83105 113.24414 118.05469 113.02051 118.05469 112.74414 C 118.05469 112.46777 117.83105 112.24414 117.55469 112.24414 L 109.73438 112.24414 C 109.94238 111.98865 110.1123 111.69708 110.22266 111.36523 L 124.27344 69.65625 L 124.73047 69.65625 C 126.25195 69.65625 127.49023 68.412109 127.49023 66.884766 L 127.49023 64.90625 C 129.07361 64.862671 130.34961 63.568298 130.34961 61.974609 C 130.34961 60.98468 129.85577 60.113098 129.10352 59.580078 C 129.85358 59.086243 130.34961 58.238586 130.34961 57.275391 C 130.34961 55.90625 129.34863 54.767578 128.03906 54.552734 C 129.97852 51.07959 131 47.152832 131 43.144531 C 131 30.247559 120.50879 19.755859 107.61133 19.755859 z M 107.60938 20.755859 C 119.95508 20.755859 130 30.798828 130 43.144531 C 130 47.250488 128.87988 51.266113 126.76172 54.755859 C 126.66797 54.910156 126.66504 55.102539 126.75391 55.259766 C 126.95905 55.623779 127.3609 55.485779 127.58984 55.515625 C 128.56055 55.515625 129.34961 56.304688 129.34961 57.275391 C 129.34961 58.245605 128.56055 59.035156 127.58984 59.035156 L 123.69922 59.035156 L 123.69922 55.916016 C 123.69922 55.639648 123.47559 55.416016 123.19922 55.416016 C 122.92285 55.416016 122.69922 55.639648 122.69922 55.916016 L 122.69922 68.765625 C 122.69922 69.910217 121.78198 70.865234 120.59961 70.865234 C 119.45404 70.865234 118.5 69.918396 118.5 68.765625 L 118.5 68.005859 C 118.5 66.320984 117.14337 64.90625 115.41016 64.90625 C 113.70117 64.90625 112.31055 66.296387 112.31055 68.005859 L 112.31055 68.765625 C 112.31055 69.8974 111.39716 70.865234 110.20898 70.865234 C 108.88904 70.865234 108.10937 69.695252 108.10938 68.765625 L 108.10938 55.916016 C 108.10938 55.639648 107.88574 55.416016 107.60938 55.416016 C 107.33301 55.416016 107.10938 55.639648 107.10938 55.916016 L 107.10938 59.035156 L 95.912109 59.035156 C 93.599304 55.528198 90.387573 52.72467 86.599609 50.904297 C 85.682251 48.43335 85.208984 45.824158 85.208984 43.144531 C 85.208984 30.798828 95.257812 20.755859 107.60938 20.755859 z M 107.56445 23.371094 C 102.12206 23.371094 96.859375 25.655762 93.126953 29.638672 C 92.938479 29.840333 92.949219 30.155274 93.150391 30.34375 C 93.247071 30.434084 93.369141 30.480469 93.492188 30.480469 C 93.625976 30.480469 93.758792 30.427247 93.857422 30.322266 C 97.40039 26.540528 102.39745 24.371094 107.56445 24.371094 C 107.84081 24.371094 108.06445 24.147461 108.06445 23.871094 C 108.06445 23.594726 107.84081 23.371094 107.56445 23.371094 z M 26.060547 26.365234 C 37.580872 26.365234 46.884705 35.424133 47.412109 46.677734 C 46.092224 49.39386 45.415222 52.310852 45.394531 55.351562 C 44.677368 55.859985 44.003418 56.408997 43.376953 56.986328 C 42.893433 56.697022 42.34137 56.535156 41.779297 56.535156 C 40.058594 56.535156 38.660156 57.936035 38.660156 59.65625 L 38.660156 63.458984 C 38.086487 64.69165 37.634033 65.994995 37.326172 67.345703 L 36.589844 67.345703 C 35.706238 67.345703 34.923645 67.816895 34.472656 68.519531 C 34.440796 68.37146 34.419922 68.219604 34.419922 68.064453 L 34.419922 64.384766 C 34.419922 62.657349 33.021423 61.275391 31.298828 61.275391 C 29.583984 61.275391 28.189453 62.669922 28.189453 64.384766 L 28.189453 68.064453 C 28.189453 69.230042 27.211304 70.185547 26.060547 70.185547 C 24.891602 70.185547 23.939453 69.233398 23.939453 68.064453 L 23.939453 59.65625 C 23.939453 57.926941 22.537354 56.535156 20.820312 56.535156 C 19.105469 56.535156 17.708984 57.936035 17.708984 59.65625 L 17.708984 68.064453 C 17.708984 69.213013 16.768372 70.185547 15.589844 70.185547 C 14.420882 70.185547 13.470703 69.233398 13.470703 68.064453 L 13.470703 64.384766 C 13.470703 62.653809 12.066772 61.275391 10.349609 61.275391 C 8.6347656 61.275391 7.2402344 62.669922 7.2402344 64.384766 L 7.2402344 68.064453 C 7.2402344 68.621582 7.0097657 69.166992 6.6054688 69.5625 C 6.0947876 70.074036 5.3544922 70.252502 4.6796875 70.117188 L 4.6816406 47.746094 C 4.6816406 35.957031 14.271484 26.365234 26.060547 26.365234 z M 91.802734 31.445312 C 91.676392 31.465881 91.557129 31.535645 91.476562 31.648438 C 89.058593 35.018555 87.78125 38.993652 87.78125 43.146484 C 87.78125 43.422851 88.004883 43.646484 88.28125 43.646484 C 88.557617 43.646484 88.78125 43.422851 88.78125 43.146484 C 88.78125 39.204101 89.993165 35.429688 92.289062 32.230469 C 92.450195 32.00586 92.40039 31.694336 92.175781 31.533203 C 92.064453 31.452881 91.929077 31.424744 91.802734 31.445312 z M 13.837891 32.271484 C 13.710083 32.265808 13.580566 32.307373 13.478516 32.400391 C 12.290039 33.488281 11.225586 34.713379 10.318359 36.041016 C 10.163086 36.269043 10.22168 36.580078 10.449219 36.736328 C 10.536133 36.794922 10.634766 36.824219 10.732422 36.824219 C 10.891602 36.824219 11.047852 36.74707 11.144531 36.605469 C 12.007813 35.34082 13.021484 34.174316 14.154297 33.138672 C 14.357422 32.952148 14.37207 32.637207 14.185547 32.433594 C 14.091797 32.331543 13.965698 32.277161 13.837891 32.271484 z M 30.822266 33.755859 C 30.125977 33.755859 29.558594 34.32373 29.558594 35.019531 C 29.558594 35.720703 30.125977 36.291016 30.822266 36.291016 C 31.518555 36.291016 32.083984 35.720703 32.083984 35.019531 C 32.083984 34.323731 31.518555 33.755859 30.822266 33.755859 z M 30.822266 34.755859 C 30.964844 34.755859 31.083984 34.877441 31.083984 35.019531 C 31.083984 35.319336 30.558594 35.319336 30.558594 35.019531 C 30.558594 34.875 30.677734 34.755859 30.822266 34.755859 z M 19.146484 34.914062 C 18.451172 34.914063 17.884766 35.481445 17.884766 36.177734 C 17.884766 36.878906 18.451172 37.449219 19.146484 37.449219 C 19.842773 37.449219 20.410156 36.878906 20.410156 36.177734 C 20.410156 35.481445 19.842773 34.914062 19.146484 34.914062 z M 102.12305 35.03125 C 101.99573 35.044006 101.87402 35.104492 101.78711 35.210938 C 101.61227 35.424317 101.64258 35.740723 101.85547 35.916016 L 103.16602 36.990234 C 103.25977 37.066405 103.37305 37.103516 103.48438 37.103516 C 103.6289 37.103516 103.77249 37.040528 103.87109 36.919922 C 104.04591 36.706543 104.01562 36.39209 103.80273 36.216797 L 102.49023 35.142578 C 102.38232 35.05493 102.25037 35.018494 102.12305 35.03125 z M 19.146484 35.914062 C 19.289062 35.914063 19.410156 36.035156 19.410156 36.177734 C 19.410156 36.477539 18.884766 36.477539 18.884766 36.177734 C 18.884766 36.035156 19.004883 35.914062 19.146484 35.914062 z M 65.560547 36.304688 C 74.019348 36.304688 81.414063 41.82251 83.884766 49.822266 C 81.539734 49.04364 79.097595 48.625 76.599609 48.625 C 71.867249 48.625 67.337097 50.049499 63.472656 52.730469 C 58.069031 50.877502 51.696716 51.396545 46.414062 54.675781 C 46.840576 44.350708 55.356262 36.304688 65.560547 36.304688 z M 24.15625 36.652344 C 23.274414 36.652344 22.558594 37.370605 22.558594 38.251953 C 22.558594 39.140625 23.274414 39.863281 24.15625 39.863281 C 25.037109 39.863281 25.753906 39.140625 25.753906 38.251953 C 25.753906 37.370606 25.037109 36.652344 24.15625 36.652344 z M 93.529297 37.210938 C 93.401611 37.223327 93.276855 37.283203 93.189453 37.390625 C 93.014652 37.604004 93.046875 37.918457 93.259766 38.09375 L 94.570312 39.169922 C 94.663087 39.246093 94.774415 39.283203 94.886719 39.283203 C 95.031251 39.283203 95.174808 39.220214 95.273438 39.099609 C 95.448238 38.88623 95.417969 38.571777 95.205078 38.396484 L 93.894531 37.320312 C 93.788574 37.233152 93.656982 37.198548 93.529297 37.210938 z M 24.15625 37.652344 C 24.485352 37.652344 24.753906 37.922363 24.753906 38.251953 C 24.753906 38.589355 24.485352 38.863281 24.15625 38.863281 C 23.826172 38.863281 23.558594 38.589355 23.558594 38.251953 C 23.558594 37.922363 23.826172 37.652344 24.15625 37.652344 z M 9.4355469 38.072266 C 9.2418213 38.05851 9.0488281 38.158447 8.9550781 38.34375 C 7.4609374 41.277832 6.703125 44.443359 6.703125 47.751953 C 6.703125 48.02832 6.9267578 48.251953 7.203125 48.251953 C 7.4794922 48.251953 7.703125 48.02832 7.703125 47.751953 C 7.703125 44.602539 8.4248046 41.59082 9.8457031 38.798828 C 9.9716797 38.552734 9.8730469 38.250488 9.6269531 38.125 C 9.5664062 38.094116 9.5001221 38.076851 9.4355469 38.072266 z M 30.058594 38.533203 C 28.941406 38.533203 28.035156 39.441895 28.035156 40.558594 C 28.035156 41.685547 28.941406 42.601562 30.058594 42.601562 C 31.175781 42.601563 32.083984 41.685547 32.083984 40.558594 C 32.083984 39.441895 31.175781 38.533203 30.058594 38.533203 z M 30.058594 39.533203 C 30.624023 39.533203 31.083984 39.993164 31.083984 40.558594 C 31.083984 41.134277 30.624023 41.601562 30.058594 41.601562 C 29.493164 41.601563 29.035156 41.134277 29.035156 40.558594 C 29.035156 39.993164 29.493164 39.533203 30.058594 39.533203 z M 64.802734 39.693359 C 64.675415 39.705749 64.552734 39.765869 64.464844 39.873047 C 64.290039 40.086426 64.322266 40.402832 64.535156 40.578125 L 65.746094 41.570312 C 65.839844 41.646484 65.952148 41.683594 66.064453 41.683594 C 66.208984 41.683594 66.352539 41.622559 66.451172 41.501953 C 66.625977 41.288574 66.595703 40.972168 66.382812 40.796875 L 65.169922 39.804688 C 65.062988 39.717773 64.930054 39.680969 64.802734 39.693359 z M 107.23828 40.611328 C 107.11096 40.623718 106.98974 40.683838 106.90234 40.791016 C 106.7275 41.004395 106.75781 41.320801 106.9707 41.496094 L 108.28125 42.570312 C 108.375 42.646484 108.48536 42.683594 108.59766 42.683594 C 108.74219 42.683594 108.88577 42.620606 108.98438 42.5 C 109.15921 42.286621 109.12891 41.972168 108.91602 41.796875 L 107.60547 40.722656 C 107.49805 40.63574 107.3656 40.598939 107.23828 40.611328 z M 19.537109 40.757812 C 18.393555 40.757813 17.462891 41.689941 17.462891 42.833984 C 17.462891 43.989258 18.393555 44.927734 19.537109 44.927734 C 20.681641 44.927734 21.613281 43.989258 21.613281 42.833984 C 21.613281 41.689941 20.681641 40.757812 19.537109 40.757812 z M 112.89648 41.099609 C 112.70318 41.125656 112.53665 41.263672 112.48242 41.462891 C 112.41016 41.729493 112.56738 42.005375 112.83398 42.078125 L 114.4707 42.523438 C 114.51466 42.535618 114.55856 42.541016 114.60156 42.541016 C 114.82226 42.541016 115.02338 42.394531 115.08398 42.171875 C 115.15624 41.905273 114.99902 41.631344 114.73242 41.558594 L 113.0957 41.113281 C 113.02857 41.094727 112.96092 41.090927 112.89648 41.099609 z M 56.861328 41.707031 C 56.733887 41.719543 56.611328 41.780273 56.523438 41.886719 C 56.348633 42.100586 56.378906 42.416504 56.591797 42.591797 L 57.802734 43.585938 C 57.895508 43.662109 58.008789 43.699219 58.121094 43.699219 C 58.265625 43.699219 58.407227 43.635742 58.505859 43.515625 C 58.680664 43.301758 58.650391 42.987793 58.4375 42.8125 L 57.226562 41.818359 C 57.120117 41.731201 56.98877 41.694519 56.861328 41.707031 z M 19.537109 41.757812 C 20.129883 41.757812 20.613281 42.241211 20.613281 42.833984 C 20.613281 43.4375 20.129883 43.927734 19.537109 43.927734 C 18.944336 43.927734 18.462891 43.4375 18.462891 42.833984 C 18.462891 42.241211 18.944336 41.757812 19.537109 41.757812 z M 99.517578 41.949219 C 99.45369 41.959762 99.391846 41.983032 99.333984 42.019531 L 97.898438 42.923828 C 97.665037 43.071288 97.594726 43.379882 97.742188 43.613281 C 97.836914 43.764159 98.000976 43.847656 98.166016 43.847656 C 98.257812 43.847656 98.348631 43.821781 98.431641 43.769531 L 99.867188 42.865234 C 100.10064 42.717773 100.16894 42.409179 100.02148 42.175781 C 99.910157 41.999636 99.709244 41.917588 99.517578 41.949219 z M 26.210938 43.958984 C 25.407227 43.958984 24.753906 44.612793 24.753906 45.416016 C 24.753906 46.226074 25.407227 46.884766 26.210938 46.884766 C 27.014648 46.884766 27.667969 46.226074 27.667969 45.416016 C 27.667969 44.612793 27.014648 43.958984 26.210938 43.958984 z M 119.8457 44.099609 C 119.65247 44.125747 119.48654 44.265258 119.43164 44.464844 C 119.35938 44.731445 119.5166 45.005375 119.7832 45.078125 L 121.41992 45.523438 C 121.46387 45.535618 121.50583 45.541016 121.54883 45.541016 C 121.76954 45.541016 121.9727 45.394532 122.0332 45.171875 C 122.10546 44.905274 121.9463 44.631344 121.67969 44.558594 L 120.04492 44.113281 C 119.97754 44.095093 119.91011 44.090897 119.8457 44.099609 z M 69.53125 44.849609 C 69.403564 44.862183 69.280762 44.922852 69.193359 45.029297 C 69.018555 45.243164 69.048828 45.559082 69.261719 45.734375 L 70.472656 46.728516 C 70.56543 46.804688 70.678711 46.841797 70.791016 46.841797 C 70.935547 46.841797 71.079102 46.77832 71.177734 46.658203 C 71.352539 46.444336 71.322266 46.130371 71.109375 45.955078 L 69.898438 44.960938 C 69.79248 44.873535 69.658936 44.837036 69.53125 44.849609 z M 26.210938 44.958984 C 26.462891 44.958984 26.667969 45.164062 26.667969 45.416016 C 26.667969 45.674805 26.462891 45.884766 26.210938 45.884766 C 25.958984 45.884766 25.753906 45.674805 25.753906 45.416016 C 25.753906 45.164062 25.958984 44.958984 26.210938 44.958984 z M 33.115234 45.324219 C 32.310547 45.324219 31.65625 45.977051 31.65625 46.78125 C 31.65625 47.591797 32.310547 48.251953 33.115234 48.251953 C 33.918945 48.251953 34.574219 47.591797 34.574219 46.78125 C 34.574219 45.977051 33.918945 45.324219 33.115234 45.324219 z M 62.392578 46.087891 C 62.328613 46.09848 62.264893 46.12146 62.207031 46.158203 L 60.882812 46.994141 C 60.649414 47.141602 60.579102 47.450195 60.726562 47.683594 C 60.821289 47.834473 60.985352 47.916016 61.150391 47.916016 C 61.242187 47.916016 61.333008 47.89209 61.416016 47.839844 L 62.740234 47.003906 C 62.973633 46.856445 63.043945 46.547852 62.896484 46.314453 C 62.785889 46.138306 62.584473 46.056122 62.392578 46.087891 z M 33.115234 46.324219 C 33.368164 46.324219 33.574219 46.52832 33.574219 46.78125 C 33.574219 47.040039 33.368164 47.251953 33.115234 47.251953 C 32.862305 47.251953 32.65625 47.040039 32.65625 46.78125 C 32.65625 46.52832 32.862305 46.324219 33.115234 46.324219 z M 105.94531 46.601562 C 105.75249 46.627632 105.5842 46.767212 105.5293 46.966797 C 105.45703 47.233399 105.61426 47.507328 105.88086 47.580078 L 107.51562 48.025391 C 107.55958 48.037571 107.60348 48.042969 107.64648 48.042969 C 107.86718 48.042969 108.06841 47.898437 108.12891 47.675781 C 108.20118 47.409179 108.04394 47.133297 107.77734 47.060547 L 106.14258 46.615234 C 106.07593 46.596924 106.00959 46.592873 105.94531 46.601562 z M 113.3457 48.466797 C 113.22021 48.491882 113.10352 48.566162 113.02734 48.681641 L 112.08984 50.091797 C 111.93652 50.321778 111.99805 50.632324 112.22852 50.785156 C 112.31348 50.841796 112.40821 50.869141 112.50391 50.869141 C 112.66505 50.869141 112.82422 50.791504 112.91992 50.646484 L 113.85938 49.234375 C 114.01269 49.004395 113.95117 48.693848 113.7207 48.541016 C 113.60644 48.464844 113.47119 48.441712 113.3457 48.466797 z M 76.601562 49.625 C 84.47699 49.625 91.348144 53.760925 95.230469 59.806641 C 96.189453 61.285156 96.973633 62.891113 97.558594 64.578125 C 97.787476 65.243347 97.981201 65.950562 98.154297 66.673828 L 92.416016 66.673828 C 92.139648 66.673828 91.916016 66.897461 91.916016 67.173828 C 91.916016 67.450195 92.139648 67.673828 92.416016 67.673828 C 92.520325 67.673828 100.2124 67.675781 100.11133 67.675781 C 101.26599 67.675781 102.15912 68.760925 101.87695 69.931641 C 101.6748 70.72168 100.86914 71.294922 99.960938 71.294922 C 88.774963 71.305359 89.914246 71.272949 89.320312 71.318359 C 87.125977 71.537109 85.470703 73.375977 85.470703 75.595703 C 85.477112 84.422546 85.466492 84.120239 85.466797 84.128906 C 85.521484 86.117737 84.227356 87.106628 82.863281 87.005859 C 81.552307 86.918823 80.589844 85.737183 80.589844 84.396484 L 80.589844 76.195312 C 80.589844 74.051575 79.202271 72.203064 77.214844 71.552734 C 77.100281 63.44989 72.094971 56.198425 64.630859 53.166016 C 68.196289 50.856445 72.310791 49.625 76.601562 49.625 z M 56.933594 52.658203 C 59.114647 52.643827 61.300892 53.002064 63.384766 53.748047 C 70.883728 56.375916 75.998413 63.403076 76.212891 71.314453 L 76.140625 71.314453 L 76.140625 71.355469 L 67.5 71.355469 C 65.410156 71.355469 63.738281 72.998047 63.691406 75.105469 L 63.691406 75.115234 L 63.691406 82.464844 C 63.691406 83.588745 62.847107 84.556397 61.802734 84.636719 C 60.445923 84.690063 59.601562 83.673035 59.601562 82.585938 L 59.601562 82.066406 C 59.601562 80.395996 58.367188 78.986328 56.789062 78.857422 C 54.96405 78.717346 53.490234 80.169617 53.490234 81.90625 L 53.490234 86.634766 C 53.490234 87.732178 52.703003 88.755432 51.603516 88.845703 C 50.453674 88.95282 49.378906 88.030029 49.378906 86.794922 L 49.378906 75.166016 C 49.378906 73.017639 47.619202 71.355469 45.580078 71.355469 L 36.708984 71.355469 C 35.90918 71.355469 35.214844 70.819824 35.095703 70.123047 C 35.078125 70.008301 35.070313 69.901367 35.070312 69.808594 C 35.092773 69.001465 35.774414 68.345703 36.589844 68.345703 C 37.559387 68.345276 43.653076 68.341614 43.277344 68.341797 C 43.553711 68.341797 43.777344 68.118164 43.777344 67.841797 C 43.777344 67.56543 43.553711 67.341797 43.277344 67.341797 L 38.363281 67.341797 C 39.211609 63.820679 41.066467 60.541077 43.767578 57.976562 C 47.363861 54.522068 52.135276 52.689831 56.933594 52.658203 z M 83.410156 55.486328 C 83.282593 55.498901 83.160156 55.55957 83.072266 55.666016 C 82.897461 55.879883 82.929688 56.195801 83.142578 56.371094 L 84.353516 57.363281 C 84.446289 57.439453 84.557617 57.476562 84.669922 57.476562 C 84.814453 57.476563 84.958008 57.415039 85.056641 57.294922 C 85.231445 57.081055 85.201172 56.765137 84.988281 56.589844 L 83.777344 55.597656 C 83.671387 55.510254 83.53772 55.473755 83.410156 55.486328 z M 75.466797 57.5 C 75.339233 57.512451 75.216797 57.572998 75.128906 57.679688 C 74.954102 57.893555 74.986328 58.209473 75.199219 58.384766 L 76.410156 59.378906 C 76.50293 59.455078 76.614258 59.492188 76.726562 59.492188 C 76.871094 59.492187 77.014648 59.428711 77.113281 59.308594 C 77.288086 59.094727 77.257812 58.780762 77.044922 58.605469 L 75.833984 57.611328 C 75.728027 57.52417 75.59436 57.487549 75.466797 57.5 z M 20.820312 57.535156 C 21.98822 57.535156 22.941406 58.478088 22.941406 59.65625 L 22.941406 68.064453 C 22.941406 69.784668 24.339844 71.185547 26.060547 71.185547 C 27.760559 71.185547 29.191406 69.784668 29.191406 68.064453 L 29.191406 64.384766 C 29.191406 63.221191 30.137695 62.275391 31.300781 62.275391 C 32.46814 62.275391 33.419922 63.207581 33.419922 64.384766 L 33.419922 68.064453 C 33.419922 68.767212 33.660889 69.434387 34.083984 69.974609 C 34.089661 70.073425 34.091431 70.167297 34.107422 70.279297 C 34.301941 71.412109 35.337402 72.270203 36.548828 72.341797 C 36.542419 72.348267 36.535645 72.352844 36.529297 72.359375 C 35.852539 73.023926 35.480469 73.919922 35.480469 74.884766 C 35.480469 76.388916 36.408325 77.665527 37.691406 78.183594 L 38.671875 88.095703 L 6.9902344 88.095703 C 5.7167969 88.095703 4.6816406 87.058594 4.6816406 85.785156 L 4.6816406 71.144531 C 5.6229248 71.267456 6.6193847 70.96582 7.3105469 70.273438 C 7.9023438 69.695312 8.2402344 68.88916 8.2402344 68.064453 L 8.2402344 64.384766 C 8.2402344 63.221191 9.1875 62.275391 10.351562 62.275391 C 11.506653 62.275391 12.470703 63.197876 12.470703 64.384766 L 12.470703 68.064453 C 12.470703 69.784668 13.870117 71.185547 15.589844 71.185547 C 17.29895 71.185547 18.710938 69.784973 18.710938 68.064453 L 18.710938 59.65625 C 18.710938 58.487305 19.65625 57.535156 20.820312 57.535156 z M 41.78125 57.535156 C 42.077698 57.535156 42.360962 57.602905 42.626953 57.720703 C 41.48706 58.875366 40.487305 60.148926 39.660156 61.544922 L 39.660156 59.65625 C 39.660156 58.487305 40.612305 57.535156 41.78125 57.535156 z M 58.107422 57.785156 C 57.979858 57.797607 57.857422 57.859863 57.769531 57.966797 C 57.594727 58.180664 57.625 58.494629 57.837891 58.669922 L 59.048828 59.664062 C 59.141602 59.740234 59.25293 59.777344 59.365234 59.777344 C 59.509766 59.777344 59.655273 59.71582 59.753906 59.595703 C 59.928711 59.381836 59.896484 59.065918 59.683594 58.890625 L 58.472656 57.896484 C 58.366699 57.809082 58.234985 57.772705 58.107422 57.785156 z M 50.162109 59.800781 C 50.034546 59.813232 49.912109 59.873779 49.824219 59.980469 C 49.649414 60.194336 49.681641 60.510254 49.894531 60.685547 L 51.105469 61.677734 C 51.198242 61.753906 51.30957 61.791016 51.421875 61.791016 C 51.566406 61.791016 51.709961 61.729492 51.808594 61.609375 C 51.983398 61.395508 51.951172 61.07959 51.738281 60.904297 L 50.527344 59.912109 C 50.421387 59.824951 50.289673 59.78833 50.162109 59.800781 z M 96.537109 60.035156 L 107.11133 60.035156 L 107.11133 63.916016 L 98.375 63.916016 C 97.881958 62.56134 97.264343 61.260925 96.537109 60.035156 z M 123.69922 60.035156 L 127.41016 60.035156 C 128.48047 60.035156 129.34961 60.904785 129.34961 61.974609 C 129.34961 63.044434 128.48047 63.916016 127.41016 63.916016 L 123.69922 63.916016 L 123.69922 60.035156 z M 81 61.880859 C 80.936036 61.891548 80.872311 61.914307 80.814453 61.951172 L 79.488281 62.787109 C 79.254883 62.93457 79.18457 63.243164 79.332031 63.476562 C 79.426758 63.627441 79.59082 63.708984 79.755859 63.708984 C 79.847656 63.708984 79.938477 63.685059 80.021484 63.632812 L 81.347656 62.796875 C 81.581055 62.649414 81.651367 62.34082 81.503906 62.107422 C 81.393311 61.930542 81.191892 61.848793 81 61.880859 z M 62.833984 62.943359 C 62.706299 62.955811 62.583496 63.016357 62.496094 63.123047 C 62.321289 63.336914 62.351563 63.652832 62.564453 63.828125 L 63.775391 64.820312 C 63.868164 64.896484 63.979492 64.933594 64.091797 64.933594 C 64.236328 64.933594 64.381836 64.87207 64.480469 64.751953 C 64.655273 64.538086 64.623047 64.222168 64.410156 64.046875 L 63.199219 63.054688 C 63.093262 62.967529 62.96167 62.930908 62.833984 62.943359 z M 55.693359 64.179688 C 55.629471 64.190277 55.567627 64.21521 55.509766 64.251953 L 54.183594 65.087891 C 53.950195 65.235352 53.879883 65.543945 54.027344 65.777344 C 54.12207 65.928223 54.286133 66.009766 54.451172 66.009766 C 54.542969 66.009766 54.633789 65.98584 54.716797 65.933594 L 56.042969 65.097656 C 56.276367 64.950195 56.34668 64.641602 56.199219 64.408203 C 56.087891 64.232056 55.885025 64.147919 55.693359 64.179688 z M 98.710938 64.916016 L 107.11133 64.916016 L 107.11133 68.65625 L 102.78711 68.65625 C 102.42694 67.504272 101.35211 66.675781 100.11133 66.675781 L 99.191406 66.675781 C 99.052856 66.070618 98.887817 65.487122 98.710938 64.916016 z M 123.70117 64.916016 L 126.49023 64.916016 L 126.49023 66.884766 C 126.49023 67.86084 125.70117 68.65625 124.73047 68.65625 L 123.70117 68.65625 L 123.70117 64.916016 z M 115.41016 65.90625 C 116.59357 65.90625 117.5 66.877685 117.5 68.005859 L 117.5 68.65625 L 113.31055 68.65625 L 113.31055 68.005859 C 113.31055 66.847656 114.25195 65.90625 115.41016 65.90625 z M 90.505859 66.673828 C 90.229492 66.673828 90.005859 66.897461 90.005859 67.173828 C 90.005859 67.450195 90.229492 67.673828 90.505859 67.673828 L 90.515625 67.673828 C 90.791992 67.673828 91.011719 67.450195 91.011719 67.173828 C 91.011719 66.897461 90.782227 66.673828 90.505859 66.673828 z M 44.925781 67.341797 C 44.649414 67.341797 44.431641 67.56543 44.431641 67.841797 C 44.431641 68.118164 44.65918 68.341797 44.935547 68.341797 C 45.211914 68.341797 45.435547 68.118164 45.435547 67.841797 C 45.435547 67.56543 45.211914 67.341797 44.935547 67.341797 L 44.925781 67.341797 z M 113.16992 69.65625 L 117.64648 69.65625 C 118.03241 70.937378 119.23419 71.865234 120.60156 71.865234 C 121.42035 71.865234 122.18756 71.550171 122.77344 70.976562 L 109.27539 111.04688 C 108.98261 111.92725 108.22821 112.2417 107.61719 112.24414 L 107.60352 112.24414 C 106.99249 112.2417 106.23712 111.92725 105.94336 111.04492 L 98.302734 88.371094 L 99.310547 78.171875 C 100.61017 77.637512 101.51953 76.369446 101.51953 74.884766 C 101.51953 73.845154 101.06689 72.916748 100.35547 72.263672 C 101.56201 72.11499 102.55939 71.303955 102.84766 70.173828 C 102.88727 70.010071 102.90784 69.848694 102.91992 69.695312 L 107.26562 69.695312 C 107.66138 70.972717 108.83173 71.865234 110.20898 71.865234 C 111.52185 71.865234 112.76105 71.028626 113.16992 69.65625 z M 89.410156 72.314453 L 97.949219 72.314453 C 99.366211 72.314453 100.51953 73.467285 100.51953 74.884766 C 100.51953 76.252258 99.45343 77.37677 98.089844 77.445312 C 97.278687 77.445984 87.281982 77.454407 86.470703 77.455078 L 86.470703 75.595703 C 86.470703 73.896851 87.731384 72.489502 89.410156 72.314453 z M 38.636719 72.355469 L 45.580078 72.355469 C 47.096619 72.355469 48.378906 73.601501 48.378906 75.166016 L 48.378906 77.445312 L 38.917969 77.445312 C 37.550476 77.38446 36.480469 76.260498 36.480469 74.884766 C 36.480469 73.571045 37.45282 72.52533 38.636719 72.355469 z M 67.5 72.355469 L 76.365234 72.355469 L 76.380859 72.357422 C 78.240234 72.691406 79.589844 74.305664 79.589844 76.195312 L 79.589844 77.445312 L 64.691406 77.445312 L 64.691406 75.117188 C 64.725586 73.568848 65.958984 72.355469 67.5 72.355469 z M 38.722656 78.445312 C 38.825317 78.445557 43.361572 78.455688 43.072266 78.455078 L 39.113281 82.40625 L 38.722656 78.445312 z M 98.277344 78.445312 L 97.873047 82.546875 L 97.75 82.667969 L 93.537109 78.455078 C 93.637817 78.454834 98.455322 78.444946 98.277344 78.445312 z M 44.488281 78.455078 L 44.603516 78.455078 C 45.247864 79.097412 47.757935 81.602844 48.378906 82.222656 L 48.378906 84.908203 L 44.541016 88.748047 C 40.402588 84.61084 39.864258 84.060974 39.34375 83.589844 L 44.488281 78.455078 z M 46.037109 78.455078 L 48.378906 78.455078 L 48.378906 80.800781 C 47.287292 79.699158 46.551453 78.957764 46.037109 78.455078 z M 64.691406 78.455078 L 66.621094 78.455078 L 64.691406 80.378906 L 64.691406 78.455078 z M 68.037109 78.455078 L 68.167969 78.455078 L 73.283203 83.568359 L 68.101562 88.75 L 63.910156 84.558594 C 64.399414 83.983582 64.691406 83.239258 64.691406 82.464844 L 64.691406 81.792969 L 68.037109 78.455078 z M 69.582031 78.455078 L 78.396484 78.455078 L 73.990234 82.861328 L 69.582031 78.455078 z M 86.470703 78.455078 L 90.181641 78.455078 L 86.470703 82.160156 L 86.470703 78.455078 z M 91.597656 78.455078 L 92.123047 78.455078 L 97.042969 83.375 L 91.667969 88.751953 L 86.478516 83.566406 L 91.597656 78.455078 z M 79.589844 78.675781 L 79.589844 84.396484 C 79.589844 85.644226 80.213013 86.786499 81.1875 87.443359 L 79.880859 88.75 L 74.697266 83.568359 L 79.589844 78.675781 z M 56.708984 79.853516 C 57.751953 79.938477 58.599609 80.931641 58.599609 82.066406 L 58.599609 82.585938 C 58.599609 83.617798 59.12262 84.558228 59.949219 85.119141 L 56.320312 88.748047 L 54.466797 86.894531 C 54.473694 86.807922 54.490234 86.721436 54.490234 86.634766 L 54.490234 81.90625 C 54.490234 80.722595 55.5047 79.754517 56.708984 79.853516 z M 97.71875 84.103516 C 97.698914 84.304321 96.736877 94.047546 96.757812 93.835938 L 92.371094 89.453125 L 97.71875 84.103516 z M 73.990234 84.275391 L 79.173828 89.457031 L 73.992188 94.640625 L 68.808594 89.457031 L 73.990234 84.275391 z M 86.439453 84.941406 L 90.960938 89.458984 L 85.777344 94.642578 L 80.587891 89.457031 L 82.154297 87.888672 C 82.363098 87.945435 82.573319 87.989075 82.794922 88.003906 C 84.596695 88.116516 86.225464 86.850098 86.439453 84.941406 z M 39.369141 84.990234 C 40.692444 86.313538 42.964294 88.585327 43.833984 89.455078 L 40.171875 93.117188 L 39.369141 84.990234 z M 63.158203 85.222656 L 67.394531 89.457031 L 62.212891 94.638672 L 57.027344 89.455078 L 60.939453 85.542969 C 61.237976 85.609436 61.548218 85.649109 61.867188 85.634766 C 62.335571 85.598999 62.776001 85.456726 63.158203 85.222656 z M 48.378906 86.322266 L 48.378906 86.794922 C 48.378906 88.610596 49.928101 89.97522 51.681641 89.84375 C 52.785461 89.752991 53.721252 89.034058 54.179688 88.021484 L 55.613281 89.455078 L 50.431641 94.636719 L 45.248047 89.455078 L 48.378906 86.322266 z M 22.066406 89.095703 L 30.060547 89.095703 L 30.060547 94.128906 L 27.730469 94.128906 C 27.454102 94.128906 27.230469 94.352539 27.230469 94.628906 C 27.230469 94.905273 27.454102 95.128906 27.730469 95.128906 L 30.060547 95.128906 L 30.060547 107.03711 L 27.730469 107.03711 C 27.454102 107.03711 27.230469 107.26074 27.230469 107.53711 C 27.230469 107.81348 27.454102 108.03711 27.730469 108.03711 L 30.060547 108.03711 L 30.060547 108.24023 C 30.060547 110.44434 28.268555 112.23828 26.064453 112.23828 C 23.860352 112.23828 22.066406 110.44434 22.066406 108.24023 L 22.066406 89.095703 z M 31.060547 89.095703 L 38.769531 89.095703 L 40.572266 107.33594 C 40.775757 109.39099 41.946045 111.1889 43.648438 112.24414 L 29.025391 112.24414 C 30.254211 111.33301 31.060547 109.8844 31.060547 108.24023 L 31.060547 89.095703 z M 91.664062 90.160156 L 96.630859 95.123047 L 96.582031 95.603516 L 91.662109 100.52734 L 86.480469 95.345703 L 91.664062 90.160156 z M 44.541016 90.162109 L 49.724609 95.34375 L 44.542969 100.52539 L 40.505859 96.492188 L 40.298828 94.402344 L 44.541016 90.162109 z M 56.320312 90.162109 L 61.505859 95.345703 L 56.324219 100.52734 L 51.138672 95.34375 L 56.320312 90.162109 z M 68.101562 90.164062 L 73.285156 95.347656 L 68.105469 100.5293 L 62.919922 95.345703 L 68.101562 90.164062 z M 79.880859 90.164062 L 85.068359 95.349609 L 79.884766 100.5332 L 74.699219 95.347656 L 79.880859 90.164062 z M 98.068359 90.734375 L 104.99609 111.36328 C 105.10675 111.69556 105.27802 111.98846 105.48633 112.24414 L 93.369141 112.24414 C 95.124634 111.1554 96.219849 109.33527 96.429688 107.33398 L 98.068359 90.734375 z M 50.431641 96.050781 L 55.617188 101.23438 L 50.435547 106.41602 L 45.25 101.23438 L 50.431641 96.050781 z M 62.212891 96.052734 L 67.398438 101.23633 L 62.21875 106.41797 L 57.03125 101.23438 L 62.212891 96.052734 z M 85.773438 96.052734 L 90.957031 101.23438 L 85.773438 106.41992 L 80.589844 101.23828 L 85.773438 96.052734 z M 73.992188 96.054688 L 79.177734 101.24023 L 73.998047 106.41992 L 68.8125 101.23633 L 73.992188 96.054688 z M 96.427734 97.171875 L 95.697266 104.56055 L 92.369141 101.23242 L 96.427734 97.171875 z M 22.96875 97.839844 C 22.692383 97.839844 22.46875 98.063477 22.46875 98.339844 C 22.46875 98.616211 22.692383 98.839844 22.96875 98.839844 L 25.798828 98.839844 C 26.075195 98.839844 26.298828 98.616211 26.298828 98.339844 C 26.298828 98.063477 26.075195 97.839844 25.798828 97.839844 L 22.96875 97.839844 z M 40.662109 98.0625 L 43.833984 101.23438 L 41.232422 103.83594 L 40.662109 98.0625 z M 44.542969 101.94141 L 49.728516 107.12305 L 45.025391 111.82617 C 43.121521 111.06445 41.773193 109.2998 41.568359 107.23633 L 41.359375 105.125 L 44.542969 101.94141 z M 56.324219 101.94141 L 61.511719 107.12695 L 56.394531 112.24414 L 56.267578 112.24414 L 51.142578 107.12305 L 56.324219 101.94141 z M 91.664062 101.94141 L 95.570312 105.8457 L 95.433594 107.23438 C 95.189148 109.56976 93.544678 111.44885 91.378906 112.02734 L 86.480469 107.12695 L 91.664062 101.94141 z M 68.105469 101.94336 L 73.291016 107.12695 L 68.173828 112.24414 L 68.044922 112.24414 L 62.925781 107.125 L 68.105469 101.94336 z M 79.882812 101.94531 L 85.066406 107.12891 L 79.953125 112.24414 L 79.826172 112.24414 L 74.705078 107.125 L 79.882812 101.94531 z M 24.654297 103.20508 C 24.37793 103.20508 24.154297 103.42871 24.154297 103.70508 C 24.154297 103.98145 24.37793 104.20508 24.654297 104.20508 L 27.484375 104.20508 C 27.760742 104.20508 27.984375 103.98145 27.984375 103.70508 C 27.984375 103.42871 27.760742 103.20508 27.484375 103.20508 L 24.654297 103.20508 z M 50.435547 107.83008 L 54.853516 112.24414 C 46.88446 112.21216 47.008423 112.315 46.111328 112.15234 L 50.435547 107.83008 z M 62.21875 107.83203 L 66.630859 112.24414 L 57.808594 112.24414 L 62.21875 107.83203 z M 73.998047 107.83203 L 78.412109 112.24414 L 69.587891 112.24414 L 73.998047 107.83203 z M 85.773438 107.83594 L 90.167969 112.23047 C 89.610108 112.25763 90.453613 112.23346 81.367188 112.24414 L 85.773438 107.83594 z M 2.5 112.24414 C 2.2236328 112.24414 2 112.46777 2 112.74414 C 2 113.02051 2.2236328 113.24414 2.5 113.24414 L 2.9003906 113.24414 C 3.1767578 113.24414 3.4003906 113.02051 3.4003906 112.74414 C 3.4003906 112.46777 3.1767578 112.24414 2.9003906 112.24414 L 2.5 112.24414 z M 7.9003906 112.24414 C 7.6240234 112.24414 7.4003906 112.46777 7.4003906 112.74414 C 7.4003906 113.02051 7.6240234 113.24414 7.9003906 113.24414 L 13.619141 113.24414 C 13.895508 113.24414 14.119141 113.02051 14.119141 112.74414 C 14.119141 112.46777 13.895508 112.24414 13.619141 112.24414 L 7.9003906 112.24414 z M 120.05664 112.24414 C 119.78027 112.24414 119.55664 112.46777 119.55664 112.74414 C 119.55664 113.02051 119.78027 113.24414 120.05664 113.24414 L 125.18164 113.24414 C 125.45801 113.24414 125.68164 113.02051 125.68164 112.74414 C 125.68164 112.46777 125.45801 112.24414 125.18164 112.24414 L 120.05664 112.24414 z M 130.18164 112.24414 C 129.90527 112.24414 129.68164 112.46777 129.68164 112.74414 C 129.68164 113.02051 129.90527 113.24414 130.18164 113.24414 L 130.5 113.24414 C 130.77637 113.24414 131 113.02051 131 112.74414 C 131 112.46777 130.77637 112.24414 130.5 112.24414 L 130.18164 112.24414 z"/></svg>