<svg xmlns="http://www.w3.org/2000/svg"  viewBox="0 0 50 50" width="512px" height="512px" fill="white"><path d="M 17 1 C 16.447 1 16 1.447 16 2 L 16 5 L 34 5 L 34 2 C 34 1.447 33.553 1 33 1 L 17 1 z M 34.117188 6 L 31 13.236328 L 31 25.601562 C 33.947 25.587563 35.883484 26.695094 36.896484 27.496094 C 36.932484 27.524094 36.964 27.554984 37 27.583984 L 37 12.763672 L 34.117188 6 z M 15.332031 7 L 12.667969 12 L 29.382812 12 L 31.382812 7 L 15.332031 7 z M 12 14 L 12 20.269531 C 13.04 19.840531 14.378109 19.526953 15.787109 19.626953 C 17.812109 19.770953 19.547781 20.729391 20.800781 22.400391 C 23.377781 25.836391 24.353813 26.88125 27.757812 26.03125 C 28.187812 25.92325 28.599 25.844297 29 25.779297 L 29 14 L 12 14 z M 15.066406 21.609375 C 13.734779 21.648914 12.564375 22.136063 12 22.492188 L 12 47 C 12 47.553 12.447 48 13 48 L 29 48 L 29 27.824219 C 28.748 27.872219 28.508187 27.904703 28.242188 27.970703 C 23.604187 29.134703 21.951219 27.267609 19.199219 23.599609 C 18.291219 22.389609 17.096484 21.724094 15.646484 21.621094 C 15.450984 21.606719 15.256639 21.603727 15.066406 21.609375 z M 31 27.607422 L 31 48 L 36 48 C 36.552 48 37 47.552 37 47 L 37 30.988281 C 37.004 30.658281 36.64225 29.843453 35.65625 29.064453 C 34.86925 28.442453 33.357 27.596422 31 27.607422 z"/></svg>