<svg xmlns="http://www.w3.org/2000/svg"  viewBox="0 0 50 50" width="256px" height="256px" fill="white"><path d="M 4.625 3.6269531 L 5.9609375 8.9707031 C 5.9589375 8.9787031 5.955125 8.991 5.953125 9 L 39 9 C 39.552 9 40 9.447 40 10 C 40 10.553 39.552 11 39 11 L 5.4355469 11 C 4.8305469 13.648 4 18.467 4 25 C 4 32.205 5.0169531 36.857 5.6269531 39 L 39 39 C 39.552 39 40 39.447 40 40 C 40 40.553 39.552 41 39 41 L 5.7792969 41 L 4.7089844 46.353516 L 9.9589844 45.041016 L 13 46.054688 L 16 45.054688 L 19 46.054688 L 22 45.054688 L 25 46.054688 L 28 45.054688 L 31 46.054688 L 34 45.054688 L 37 46.054688 L 40.039062 45.041016 L 45.289062 46.353516 L 44.027344 40.037109 C 44.382344 38.720109 46 32.32 46 25 C 46 17.656 44.371297 10.436906 44.029297 9.0039062 L 45.375 3.6269531 L 40.039062 4.9589844 L 37 3.9453125 L 34 4.9453125 L 31 3.9453125 L 28 4.9453125 L 25 3.9453125 L 22 4.9453125 L 19 3.9453125 L 16 4.9453125 L 13 3.9453125 L 9.9609375 4.9589844 L 4.625 3.6269531 z M 17 19 C 19.667 19 21 21 25 21 C 27.453798 21 28.906106 20.247883 30.583984 19.666016 C 30.580761 19.67149 30.57744 19.676157 30.574219 19.681641 C 29.75023 21.0846 29.006852 22.829287 28.113281 24.535156 C 27.21971 26.241026 26.184047 27.891472 24.888672 29.074219 C 23.783043 30.083716 22.518284 30.767027 20.876953 30.947266 C 20.589862 30.972063 20.304511 31 20 31 C 17.333 31 13 28.999031 13 24.332031 C 13 18.999031 17 19 17 19 z M 34.332031 19 C 34.332031 19 37 19 37 23 C 37 27 34 31 28 31 C 27.150971 31 26.480549 30.931217 25.896484 30.837891 C 26.010288 30.742628 26.12724 30.650384 26.236328 30.550781 C 27.815922 29.108528 28.944962 27.258974 29.884766 25.464844 C 30.82457 23.670713 31.581098 21.9154 32.298828 20.693359 C 32.657693 20.082339 33.009172 19.61144 33.306641 19.339844 C 33.54176 19.125173 33.70682 19.056601 33.869141 19.029297 C 34.027365 19.022604 34.164882 19 34.332031 19 z M 17 23 A 1 1 0 0 0 16 24 A 1 1 0 0 0 17 25 A 1 1 0 0 0 18 24 A 1 1 0 0 0 17 23 z M 21 23 A 1 1 0 0 0 20 24 A 1 1 0 0 0 21 25 A 1 1 0 0 0 22 24 A 1 1 0 0 0 21 23 z M 19 26 A 1 1 0 0 0 18 27 A 1 1 0 0 0 19 28 A 1 1 0 0 0 20 27 A 1 1 0 0 0 19 26 z"/></svg>